<svg xmlns="http://www.w3.org/2000/svg" width="89.369" height="89.369" viewBox="0 0 89.369 89.369"><defs><style>.a{fill:none;}.b{fill:#fff;}</style></defs><g transform="translate(0)"><path class="a" d="M0,0H89.369V89.369H0Z"/><path class="b" d="M62.579,8.447H58.856V1H51.408V8.447H21.619V1H14.171V8.447H10.447A7.469,7.469,0,0,0,3,15.895V68.027a7.469,7.469,0,0,0,7.447,7.447H62.579a7.469,7.469,0,0,0,7.447-7.447V15.895A7.469,7.469,0,0,0,62.579,8.447Zm0,59.579H10.447V30.79H62.579ZM10.447,23.342V15.895H62.579v7.447Zm20.7,38.95L53.233,40.211l-3.947-3.947L31.151,54.4l-7.857-7.857-3.947,3.947Z" transform="translate(8.171 2.724)"/></g></svg>