<svg xmlns="http://www.w3.org/2000/svg" width="82.69" height="26.66" viewBox="0 0 82.69 26.66"><defs><style>.a{fill:#02b9ef;}.b{fill:#06306f;}</style></defs><g transform="translate(-15.315 -167.976)"><path class="a" d="M365.776,191.608l.684-.547a5.044,5.044,0,0,1,7.456.6c.205.239.308.257.513.051.137-.154.291-.274.428-.428a5.176,5.176,0,0,1,8.859,3.677c.034,4.908.017,9.8.017,14.708a2.623,2.623,0,0,1-2.8,2.839c-.684,0-1.368-.051-2.052.017-.7.068-.906-.154-.906-.889.034-4.789.017-9.577.017-14.366v-.6c-.017-1.112-.462-1.573-1.522-1.625a1.56,1.56,0,0,0-1.727,1.5c-.017.222,0,.462,0,.684v12.4a2.594,2.594,0,0,1-2.856,2.856c-.923-.017-2.172.41-2.7-.188-.462-.513-.154-1.727-.154-2.634V196.927c0-1.5-.975-2.275-2.24-1.762a1.7,1.7,0,0,0-1.043,1.779c.017,3.968,0,7.918,0,11.886v.941a2.613,2.613,0,0,1-2.753,2.719c-.684.017-1.368-.051-2.052.017-.735.068-.958-.137-.941-.924.034-6.721.017-13.442.017-20.18,0-.291.017-.564,0-.855-.034-.376.12-.5.5-.5,1.573.017,3.13.017,4.7,0,.393,0,.581.1.547.53A7.1,7.1,0,0,0,365.776,191.608Z" transform="translate(-285.732 -18.001)"/><path class="b" d="M115.977,202.51v7.012c-.017,3.044-1.608,4.618-4.652,4.635-1.334,0-2.685.017-4.019,0a4.639,4.639,0,0,1-4.823-4.532,54.955,54.955,0,0,1-.017-5.815,4.924,4.924,0,0,1,5.062-4.754c.735-.017,1.488,0,2.223,0,.718-.017.992-.428.975-1.112,0-.684-.308-.992-.992-.958q-1.154.026-2.309,0a2.639,2.639,0,0,1-2.907-2.907c0-.753-.342-1.762.154-2.206.428-.376,1.4-.137,2.138-.137,1.915-.017,3.814,0,5.729,0a3.277,3.277,0,0,1,3.438,3.438C115.994,197.6,115.977,200.065,115.977,202.51Zm-5.233,3.882v-.855c0-1.744,0-1.744-1.744-1.676a1.264,1.264,0,0,0-1.368,1.385c-.017.718-.017,1.419,0,2.138.017,1.231.564,1.556,2.343,1.608,1.317.034.65-.889.77-1.4A9.315,9.315,0,0,0,110.743,206.393Z" transform="translate(-72.189 -19.634)"/><path class="b" d="M205.112,201c0,2.617.034,5.25-.017,7.867-.034,2.018-.513,3.848-2.463,4.925a5.5,5.5,0,0,1-2.531.684c-1.967.034-3.933,0-5.9.034-.479,0-.581-.171-.564-.6.034-.718-.017-1.419.017-2.138a2.494,2.494,0,0,1,2.446-2.463c.889-.034,1.762-.017,2.651,0,.718,0,1.112-.291,1.112-1.06,0-.787-.376-1.06-1.095-1.077a13.915,13.915,0,0,1-3.574-.205,4.765,4.765,0,0,1-3.574-4.4c-.1-3.335-.034-6.67-.051-10,0-.376.12-.5.5-.479,1.4.017,2.788.034,4.19,0,.616-.017.53.325.53.7v7.525c0,1.095.513,1.676,1.471,1.71,1.129.034,1.625-.428,1.625-1.573,0-2.531.017-5.079-.017-7.61,0-.6.154-.77.752-.752,1.248.051,2.514.068,3.762,0,.684-.034.787.222.77.821C205.1,195.591,205.112,198.294,205.112,201Z" transform="translate(-146.104 -19.983)"/><path class="b" d="M15.433,204.624v-8.38a4.068,4.068,0,0,1,4.429-4.412,29.634,29.634,0,0,1,5.37.137,4.463,4.463,0,0,1,3.728,4.549c.017,2.48,0,4.96,0,7.439a4.684,4.684,0,0,1-4.943,5.1c-.941.034-1.881.017-2.822,0-.428-.017-.616.12-.6.581.034.684.017,1.368,0,2.052a2.5,2.5,0,0,1-2.531,2.548c-.855.017-1.933.359-2.48-.137-.513-.462-.137-1.556-.154-2.377C15.415,209.361,15.433,206.984,15.433,204.624Zm5.165-4.19v1.625c0,1.933,0,1.933,1.933,1.762a1.186,1.186,0,0,0,1.248-1.317c.017-.958-.034-1.933.017-2.89.1-2.771-.41-2.5-2.668-2.514-.41,0-.547.12-.547.53C20.614,198.553,20.6,199.493,20.6,200.434Z" transform="translate(0 -19.73)"/><path class="a" d="M283.648,184.929c0-2.275-.017-4.566.017-6.841,0-.53-.12-.752-.7-.735-.77.034-1.8.257-2.223-.12-.53-.5-.12-1.556-.188-2.377v-.171c0-.8-.257-1.744.086-2.343s1.385-.222,2.121-.41a6.2,6.2,0,0,0,3.437-2.377,3.914,3.914,0,0,1,2.377-1.539c.53-.1.855-.034.821.65-.051.958,0,1.933-.017,2.907-.017.41.137.547.547.53.684-.017,1.368.017,2.052-.017.41-.017.547.137.53.547-.017,1.4-.017,2.788,0,4.19,0,.393-.1.6-.53.547a1.286,1.286,0,0,0-.257,0c-.752.068-1.8-.342-2.189.171-.376.479-.137,1.471-.137,2.24,0,4.652-.017,9.286.017,13.938,0,.65-.171.855-.821.8-.616-.051-1.249,0-1.881-.017a3,3,0,0,1-3.061-3.164Z" transform="translate(-219.799 0)"/></g></svg>