<svg xmlns="http://www.w3.org/2000/svg" width="89" height="80.214" viewBox="0 0 89 80.214"><defs><style>.a{fill:none;}.b{fill:#fff;}</style></defs><path class="a" d="M0,0H89V80.214H0Z"/><path class="b" d="M1,71.211a3.589,3.589,0,0,0,3.783,3.38h48.66a3.589,3.589,0,0,0,3.783-3.38v-3.28H1ZM29.094,27.739C15.047,27.739,1,34.466,1,47.852H57.189C57.189,34.466,43.142,27.739,29.094,27.739Zm-18.28,13.42c4.158-5.187,13-6.727,18.28-6.727s14.122,1.539,18.28,6.727ZM1,54.545H57.189v6.693H1ZM64.681,14.386V1H57.189V14.386H38.459l.862,6.693H75.132L69.888,67.932H64.681v6.693h6.443a6.007,6.007,0,0,0,6.106-4.919L83.41,14.386Z" transform="translate(2.295 2.295)"/></svg>